<?xml version="1.0" encoding="UTF-8"?>
<mxfile host="app.diagrams.net" modified="2024-01-20T10:00:00.000Z" agent="MCP Draw Architecture Server" version="24.7.17">
  <diagram name="示例系统架构图" id="sample-architecture-001">
    <mxGraphModel dx="1422" dy="794" grid="1" gridSize="10" guides="1" tooltips="1" connect="1" arrows="1" fold="1" page="1" pageScale="1" pageWidth="1169" pageHeight="827" math="0" shadow="0">
      <root>
        <mxCell id="0" />
        <mxCell id="1" parent="0" />
        
        <!-- 标题 -->
        <mxCell id="title" value="微服务电商系统架构图" style="text;html=1;strokeColor=none;fillColor=none;align=center;verticalAlign=middle;whiteSpace=wrap;rounded=0;fontSize=18;fontStyle=1;fontColor=#2c3e50;" vertex="1" parent="1">
          <mxGeometry x="400" y="30" width="300" height="40" as="geometry" />
        </mxCell>
        
        <!-- 客户端层 -->
        <mxCell id="client-layer-bg" value="" style="rounded=1;whiteSpace=wrap;html=1;fillColor=#e1d5e7;strokeColor=#9673a6;opacity=30;" vertex="1" parent="1">
          <mxGeometry x="50" y="100" width="1000" height="120" as="geometry" />
        </mxCell>
        
        <mxCell id="client-layer-title" value="客户端层" style="text;html=1;strokeColor=none;fillColor=none;align=left;verticalAlign=top;whiteSpace=wrap;rounded=0;fontSize=14;fontStyle=1;fontColor=#2c3e50;" vertex="1" parent="1">
          <mxGeometry x="70" y="110" width="100" height="30" as="geometry" />
        </mxCell>
        
        <mxCell id="web-client" value="Web端&lt;br/&gt;(React/Vue)" style="rounded=1;whiteSpace=wrap;html=1;fillColor=#dae8fc;strokeColor=#6c8ebf;fontSize=12;fontColor=#2c3e50;" vertex="1" parent="1">
          <mxGeometry x="200" y="140" width="120" height="60" as="geometry" />
        </mxCell>
        
        <mxCell id="mobile-client" value="移动端&lt;br/&gt;(iOS/Android)" style="rounded=1;whiteSpace=wrap;html=1;fillColor=#dae8fc;strokeColor=#6c8ebf;fontSize=12;fontColor=#2c3e50;" vertex="1" parent="1">
          <mxGeometry x="400" y="140" width="120" height="60" as="geometry" />
        </mxCell>
        
        <mxCell id="miniprogram-client" value="小程序&lt;br/&gt;(微信/支付宝)" style="rounded=1;whiteSpace=wrap;html=1;fillColor=#dae8fc;strokeColor=#6c8ebf;fontSize=12;fontColor=#2c3e50;" vertex="1" parent="1">
          <mxGeometry x="600" y="140" width="120" height="60" as="geometry" />
        </mxCell>
        
        <!-- 接入层 -->
        <mxCell id="gateway-layer-bg" value="" style="rounded=1;whiteSpace=wrap;html=1;fillColor=#d5e8d4;strokeColor=#82b366;opacity=30;" vertex="1" parent="1">
          <mxGeometry x="50" y="260" width="1000" height="100" as="geometry" />
        </mxCell>
        
        <mxCell id="gateway-layer-title" value="接入层" style="text;html=1;strokeColor=none;fillColor=none;align=left;verticalAlign=top;whiteSpace=wrap;rounded=0;fontSize=14;fontStyle=1;fontColor=#2c3e50;" vertex="1" parent="1">
          <mxGeometry x="70" y="270" width="100" height="30" as="geometry" />
        </mxCell>
        
        <mxCell id="api-gateway" value="API网关&lt;br/&gt;(Kong/Zuul)&lt;br/&gt;- 路由转发&lt;br/&gt;- 认证鉴权&lt;br/&gt;- 限流熔断" style="rounded=1;whiteSpace=wrap;html=1;fillColor=#d5e8d4;strokeColor=#82b366;fontSize=11;fontColor=#2c3e50;" vertex="1" parent="1">
          <mxGeometry x="200" y="290" width="140" height="60" as="geometry" />
        </mxCell>
        
        <mxCell id="load-balancer" value="负载均衡&lt;br/&gt;(Nginx/HAProxy)" style="rounded=1;whiteSpace=wrap;html=1;fillColor=#d5e8d4;strokeColor=#82b366;fontSize=11;fontColor=#2c3e50;" vertex="1" parent="1">
          <mxGeometry x="400" y="290" width="140" height="60" as="geometry" />
        </mxCell>
        
        <mxCell id="cdn" value="CDN&lt;br/&gt;(CloudFlare)" style="rounded=1;whiteSpace=wrap;html=1;fillColor=#d5e8d4;strokeColor=#82b366;fontSize=11;fontColor=#2c3e50;" vertex="1" parent="1">
          <mxGeometry x="600" y="290" width="120" height="60" as="geometry" />
        </mxCell>
        
        <!-- 业务层 -->
        <mxCell id="business-layer-bg" value="" style="rounded=1;whiteSpace=wrap;html=1;fillColor=#fff2cc;strokeColor=#d6b656;opacity=30;" vertex="1" parent="1">
          <mxGeometry x="50" y="400" width="1000" height="200" as="geometry" />
        </mxCell>
        
        <mxCell id="business-layer-title" value="微服务层" style="text;html=1;strokeColor=none;fillColor=none;align=left;verticalAlign=top;whiteSpace=wrap;rounded=0;fontSize=14;fontStyle=1;fontColor=#2c3e50;" vertex="1" parent="1">
          <mxGeometry x="70" y="410" width="100" height="30" as="geometry" />
        </mxCell>
        
        <mxCell id="user-service" value="用户服务&lt;br/&gt;- 注册登录&lt;br/&gt;- 用户管理&lt;br/&gt;- 权限控制" style="rounded=1;whiteSpace=wrap;html=1;fillColor=#fff2cc;strokeColor=#d6b656;fontSize=11;fontColor=#2c3e50;" vertex="1" parent="1">
          <mxGeometry x="120" y="450" width="120" height="70" as="geometry" />
        </mxCell>
        
        <mxCell id="product-service" value="商品服务&lt;br/&gt;- 商品管理&lt;br/&gt;- 库存管理&lt;br/&gt;- 价格管理" style="rounded=1;whiteSpace=wrap;html=1;fillColor=#fff2cc;strokeColor=#d6b656;fontSize=11;fontColor=#2c3e50;" vertex="1" parent="1">
          <mxGeometry x="280" y="450" width="120" height="70" as="geometry" />
        </mxCell>
        
        <mxCell id="order-service" value="订单服务&lt;br/&gt;- 订单创建&lt;br/&gt;- 订单管理&lt;br/&gt;- 状态跟踪" style="rounded=1;whiteSpace=wrap;html=1;fillColor=#fff2cc;strokeColor=#d6b656;fontSize=11;fontColor=#2c3e50;" vertex="1" parent="1">
          <mxGeometry x="440" y="450" width="120" height="70" as="geometry" />
        </mxCell>
        
        <mxCell id="payment-service" value="支付服务&lt;br/&gt;- 支付处理&lt;br/&gt;- 退款管理&lt;br/&gt;- 账单生成" style="rounded=1;whiteSpace=wrap;html=1;fillColor=#fff2cc;strokeColor=#d6b656;fontSize=11;fontColor=#2c3e50;" vertex="1" parent="1">
          <mxGeometry x="600" y="450" width="120" height="70" as="geometry" />
        </mxCell>
        
        <mxCell id="notification-service" value="通知服务&lt;br/&gt;- 短信通知&lt;br/&gt;- 邮件通知&lt;br/&gt;- 推送通知" style="rounded=1;whiteSpace=wrap;html=1;fillColor=#fff2cc;strokeColor=#d6b656;fontSize=11;fontColor=#2c3e50;" vertex="1" parent="1">
          <mxGeometry x="760" y="450" width="120" height="70" as="geometry" />
        </mxCell>
        
        <!-- 中间件层 -->
        <mxCell id="middleware-layer-bg" value="" style="rounded=1;whiteSpace=wrap;html=1;fillColor=#f8cecc;strokeColor=#b85450;opacity=30;" vertex="1" parent="1">
          <mxGeometry x="50" y="640" width="1000" height="100" as="geometry" />
        </mxCell>
        
        <mxCell id="middleware-layer-title" value="中间件层" style="text;html=1;strokeColor=none;fillColor=none;align=left;verticalAlign=top;whiteSpace=wrap;rounded=0;fontSize=14;fontStyle=1;fontColor=#2c3e50;" vertex="1" parent="1">
          <mxGeometry x="70" y="650" width="100" height="30" as="geometry" />
        </mxCell>
        
        <mxCell id="redis" value="Redis集群&lt;br/&gt;- 缓存&lt;br/&gt;- 会话存储" style="rounded=1;whiteSpace=wrap;html=1;fillColor=#f8cecc;strokeColor=#b85450;fontSize=11;fontColor=#2c3e50;" vertex="1" parent="1">
          <mxGeometry x="150" y="680" width="120" height="50" as="geometry" />
        </mxCell>
        
        <mxCell id="mq" value="消息队列&lt;br/&gt;(RabbitMQ/Kafka)" style="rounded=1;whiteSpace=wrap;html=1;fillColor=#f8cecc;strokeColor=#b85450;fontSize=11;fontColor=#2c3e50;" vertex="1" parent="1">
          <mxGeometry x="320" y="680" width="140" height="50" as="geometry" />
        </mxCell>
        
        <mxCell id="elasticsearch" value="Elasticsearch&lt;br/&gt;- 搜索引擎&lt;br/&gt;- 日志分析" style="rounded=1;whiteSpace=wrap;html=1;fillColor=#f8cecc;strokeColor=#b85450;fontSize=11;fontColor=#2c3e50;" vertex="1" parent="1">
          <mxGeometry x="510" y="680" width="120" height="50" as="geometry" />
        </mxCell>
        
        <mxCell id="config-center" value="配置中心&lt;br/&gt;(Nacos/Apollo)" style="rounded=1;whiteSpace=wrap;html=1;fillColor=#f8cecc;strokeColor=#b85450;fontSize=11;fontColor=#2c3e50;" vertex="1" parent="1">
          <mxGeometry x="680" y="680" width="120" height="50" as="geometry" />
        </mxCell>
        
        <!-- 数据层 -->
        <mxCell id="data-layer-bg" value="" style="rounded=1;whiteSpace=wrap;html=1;fillColor=#e1d5e7;strokeColor=#9673a6;opacity=30;" vertex="1" parent="1">
          <mxGeometry x="50" y="780" width="1000" height="100" as="geometry" />
        </mxCell>
        
        <mxCell id="data-layer-title" value="数据存储层" style="text;html=1;strokeColor=none;fillColor=none;align=left;verticalAlign=top;whiteSpace=wrap;rounded=0;fontSize=14;fontStyle=1;fontColor=#2c3e50;" vertex="1" parent="1">
          <mxGeometry x="70" y="790" width="100" height="30" as="geometry" />
        </mxCell>
        
        <mxCell id="mysql-master" value="MySQL主库&lt;br/&gt;- 用户数据&lt;br/&gt;- 订单数据" style="rounded=1;whiteSpace=wrap;html=1;fillColor=#e1d5e7;strokeColor=#9673a6;fontSize=11;fontColor=#2c3e50;" vertex="1" parent="1">
          <mxGeometry x="150" y="820" width="120" height="50" as="geometry" />
        </mxCell>
        
        <mxCell id="mysql-slave" value="MySQL从库&lt;br/&gt;- 读取分离" style="rounded=1;whiteSpace=wrap;html=1;fillColor=#e1d5e7;strokeColor=#9673a6;fontSize=11;fontColor=#2c3e50;" vertex="1" parent="1">
          <mxGeometry x="320" y="820" width="120" height="50" as="geometry" />
        </mxCell>
        
        <mxCell id="mongodb" value="MongoDB&lt;br/&gt;- 商品数据&lt;br/&gt;- 日志数据" style="rounded=1;whiteSpace=wrap;html=1;fillColor=#e1d5e7;strokeColor=#9673a6;fontSize=11;fontColor=#2c3e50;" vertex="1" parent="1">
          <mxGeometry x="490" y="820" width="120" height="50" as="geometry" />
        </mxCell>
        
        <mxCell id="oss" value="对象存储&lt;br/&gt;(OSS/S3)&lt;br/&gt;- 图片文件" style="rounded=1;whiteSpace=wrap;html=1;fillColor=#e1d5e7;strokeColor=#9673a6;fontSize=11;fontColor=#2c3e50;" vertex="1" parent="1">
          <mxGeometry x="660" y="820" width="120" height="50" as="geometry" />
        </mxCell>
        
        <!-- 连接线 -->
        <mxCell id="edge1" edge="1" parent="1" source="web-client" target="api-gateway">
          <mxGeometry relative="1" as="geometry" />
        </mxCell>
        
        <mxCell id="edge2" edge="1" parent="1" source="mobile-client" target="api-gateway">
          <mxGeometry relative="1" as="geometry" />
        </mxCell>
        
        <mxCell id="edge3" edge="1" parent="1" source="miniprogram-client" target="api-gateway">
          <mxGeometry relative="1" as="geometry" />
        </mxCell>
        
        <mxCell id="edge4" edge="1" parent="1" source="api-gateway" target="user-service">
          <mxGeometry relative="1" as="geometry" />
        </mxCell>
        
        <mxCell id="edge5" edge="1" parent="1" source="api-gateway" target="product-service">
          <mxGeometry relative="1" as="geometry" />
        </mxCell>
        
        <mxCell id="edge6" edge="1" parent="1" source="api-gateway" target="order-service">
          <mxGeometry relative="1" as="geometry" />
        </mxCell>
        
        <mxCell id="edge7" edge="1" parent="1" source="user-service" target="mysql-master">
          <mxGeometry relative="1" as="geometry" />
        </mxCell>
        
        <mxCell id="edge8" edge="1" parent="1" source="order-service" target="mysql-master">
          <mxGeometry relative="1" as="geometry" />
        </mxCell>
        
        <mxCell id="edge9" edge="1" parent="1" source="product-service" target="mongodb">
          <mxGeometry relative="1" as="geometry" />
        </mxCell>
        
      </root>
    </mxGraphModel>
  </diagram>
</mxfile>